<svg width="292" height="101" viewBox="0 0 292 101" fill="none" xmlns="http://www.w3.org/2000/svg">
<g clip-path="url(#clip0_836_8027)">
<path d="M268.558 29.3378H231.331V29.7469H268.558V29.3378Z" fill="#D2D6DC"/>
<path d="M268.558 38.6106H231.331V39.0197H268.558V38.6106Z" fill="#D2D6DC"/>
<path d="M231.058 20.0652V57.4288H268.694V20.0652H231.058ZM268.285 20.4743V57.0197H231.467V20.6106L268.285 20.4743Z" fill="#D2D6DC"/>
<path d="M268.558 47.8834H231.331V48.2925H268.558V47.8834Z" fill="#D2D6DC"/>
<path d="M240.74 20.3379H240.331V57.2924H240.74V20.3379Z" fill="#D2D6DC"/>
<path d="M250.149 20.3379H249.74V57.2924H250.149V20.3379Z" fill="#D2D6DC"/>
<path d="M259.422 20.3379H259.012V57.2924H259.422V20.3379Z" fill="#D2D6DC"/>
<path d="M231.058 47.8833L231.467 48.1561L259.285 20.4743L259.012 20.2015L231.058 47.8833Z" fill="#D2D6DC"/>
<path d="M240.467 57.1561L240.74 57.4288L268.695 29.747L268.422 29.4742L240.467 57.1561Z" fill="#D2D6DC"/>
<path d="M240.604 38.8833L231.331 48.1561V24.9742C231.331 22.5197 233.24 20.4742 235.694 20.4742C235.831 20.4742 235.967 20.4742 235.967 20.4742H240.604V38.8833Z" fill="#C31F41"/>
<path d="M259.149 20.2015H240.604V20.4743H259.149V20.2015Z" fill="#231F20"/>
<path d="M235.967 20.2015C233.376 20.0651 231.194 22.1106 231.194 24.7015C231.194 24.8379 231.194 24.8379 231.194 24.9742V48.5651L240.876 39.0197V20.2015H235.967ZM231.467 24.9742C231.331 22.6561 233.24 20.6106 235.558 20.6106C235.694 20.6106 235.831 20.6106 235.967 20.6106H240.467V38.8833L231.467 47.747V24.9742V24.9742Z" fill="#231F20"/>
<path d="M268.558 29.6106H268.285V48.156H268.558V29.6106Z" fill="#231F20"/>
<path d="M249.876 48.0197L240.467 57.2924H263.922C266.376 57.2924 268.422 55.3833 268.558 52.9287C268.558 52.7924 268.558 52.656 268.558 52.656V48.0197H249.876V48.0197Z" fill="#D2D6DC"/>
<path d="M249.876 47.8834L240.194 57.5652H264.058C266.649 57.7015 268.694 55.6561 268.831 53.0652C268.831 52.9288 268.831 52.7925 268.831 52.7925V48.0197H249.876V47.8834ZM268.285 48.1561V52.6561C268.422 54.9743 266.649 57.0197 264.194 57.1561C264.058 57.1561 263.922 57.1561 263.785 57.1561H240.74L249.74 48.1561H268.285Z" fill="#231F20"/>
<path d="M24.4674 42.9743H20.6492V39.1561H24.4674V29.6106H29.1037V39.1561H35.2401V42.9743H29.1037V77.6106H24.4674V42.9743Z" fill="#231F20"/>
<path d="M43.831 20.0652V42.7015C45.1946 40.1106 48.0582 38.4743 50.9219 38.6106C53.2401 38.4743 55.4219 39.5652 56.6492 41.4743C57.8764 43.3834 58.4219 46.5197 58.4219 50.8834V77.6106H53.9219V50.2015C54.0582 48.0197 53.7855 45.9743 52.831 43.9288C52.0128 42.7015 50.6492 42.0197 49.1492 42.2924C47.3764 42.2924 45.8764 43.247 45.0582 44.747C43.9673 46.9288 43.5582 49.5197 43.6946 51.9743V77.6106H39.1946V20.0652H43.831Z" fill="#231F20"/>
<path d="M69.0582 24.5652C69.8764 24.5652 70.5582 24.8379 71.1037 25.3834C71.6491 25.9288 71.9219 26.747 71.9219 27.4288C71.9219 28.247 71.6491 28.9288 71.1037 29.4743C70.5582 30.0197 69.8764 30.4288 69.0582 30.2925C68.2401 30.2925 67.5582 30.0197 67.0128 29.3379C66.4673 28.7925 66.1946 27.9743 66.1946 27.2925C66.1946 26.4743 66.4673 25.7925 67.0128 25.247C67.5582 24.8379 68.2401 24.5652 69.0582 24.5652ZM66.7401 39.1561H71.3764V77.6106H66.7401V39.1561Z" fill="#231F20"/>
<path d="M84.7401 39.1561V42.7015C85.4219 41.4743 86.5128 40.3834 87.7401 39.7015C88.9673 39.0197 90.4673 38.6106 91.831 38.747C94.1491 38.6106 96.331 39.7015 97.5582 41.6106C98.7855 43.5197 99.331 46.6561 99.331 51.0197V77.747H94.831V50.2015C94.831 47.2015 94.4219 45.1561 93.7401 43.9288C92.9219 42.7015 91.5582 42.1561 90.1946 42.2924C88.4219 42.2924 86.9219 43.247 86.1037 44.747C85.0128 46.9288 84.6037 49.5197 84.7401 51.9743V77.6106H80.1037V39.1561H84.7401Z" fill="#231F20"/>
<path d="M107.922 20.2015H112.422V77.747H107.922V20.2015ZM121.967 39.1561H127.013L117.058 55.9288L130.285 77.747H124.831L112.422 56.2015L121.967 39.1561Z" fill="#231F20"/>
<path d="M145.695 55.6561H130.831V59.4743H145.695V55.6561Z" fill="#231F20"/>
<path d="M168.74 40.1106V45.7015C168.195 44.8834 167.376 44.2015 166.558 43.6561C165.876 43.247 165.058 42.9743 164.104 42.9743C161.785 42.9743 160.013 44.3379 158.922 46.9288C157.831 49.5197 157.285 53.6106 157.285 59.3379C157.149 63.0197 157.695 66.5652 158.922 69.9743C159.604 72.1561 161.649 73.5197 163.967 73.6561C164.922 73.6561 165.74 73.3833 166.558 72.9743C167.376 72.4288 168.058 71.747 168.604 70.7924V76.3834C167.785 76.9288 166.967 77.4743 166.013 77.747C165.058 78.0197 164.104 78.1561 163.149 78.1561C159.876 78.1561 157.285 76.5197 155.376 73.1106C153.467 69.7015 152.513 65.0652 152.513 59.0652C152.513 52.247 153.467 47.2015 155.376 43.7925C157.013 40.5197 160.285 38.6106 163.967 38.6106C164.785 38.6106 165.604 38.747 166.422 39.0197C167.376 39.2925 168.058 39.5652 168.74 40.1106Z" fill="#231F20"/>
<path d="M193.013 59.6106H176.785V60.9743C176.649 64.3834 177.195 67.6561 178.422 70.7924C179.513 73.1106 181.013 74.3379 182.922 74.3379C184.558 74.3379 186.058 73.3834 186.74 71.8834C187.831 69.8379 188.376 67.3834 188.376 65.0652H192.74C192.74 68.4743 191.785 71.8834 189.876 74.8834C187.149 78.7015 181.695 79.6561 177.876 76.7924C176.649 75.9743 175.695 74.747 175.149 73.5197C173.376 70.247 172.558 65.3379 172.558 58.7924C172.558 52.247 173.513 47.3379 175.285 43.7925C177.058 40.247 179.785 38.4743 183.058 38.4743C186.331 38.4743 188.922 40.1106 190.558 43.5197C192.195 46.9288 193.149 51.8379 193.149 58.3834L193.013 59.6106ZM188.649 55.7924C188.785 52.5197 188.24 49.247 187.149 46.247C186.195 43.9288 184.831 42.8379 183.058 42.8379C181.285 42.8379 179.785 43.9288 178.695 46.247C177.467 49.247 176.785 52.6561 176.785 55.9288L188.649 55.7924Z" fill="#231F20"/>
<path d="M203.785 20.2015H199.149V77.747H203.785V20.2015Z" fill="#231F20"/>
<path d="M217.285 20.2015H212.649V77.747H217.285V20.2015Z" fill="#231F20"/>
<path d="M69.1946 24.5652C70.6946 24.5652 71.9219 25.7925 71.9219 27.2925C71.9219 27.2925 71.9219 27.2925 71.9219 27.4288C71.9219 28.9288 70.6946 30.1561 69.1946 30.1561C67.6946 30.1561 66.4673 28.9288 66.4673 27.4288C66.4673 25.9288 67.6946 24.7015 69.1946 24.5652Z" fill="#231F20"/>
</g>
<defs>
<clipPath id="clip0_836_8027">
<rect width="250.909" height="60" fill="white" transform="translate(20.6492 20.0652)"/>
</clipPath>
</defs>
</svg>
