<?xml version="1.0" encoding="UTF-8"?>
<svg width="230px" height="54px" viewBox="0 0 230 54" version="1.1" xmlns="http://www.w3.org/2000/svg" xmlns:xlink="http://www.w3.org/1999/xlink">
    <!-- Generator: Sketch 52.3 (67297) - http://www.bohemiancoding.com/sketch -->
    <title>Group</title>
    <desc>Created with Sketch.</desc>
    <g id="Symbols" stroke="none" stroke-width="1" fill="none" fill-rule="evenodd">
        <g id="Nav-Bar" transform="translate(-46.000000, -36.000000)" fill="#65C6BB">
            <g id="Group" transform="translate(46.000000, 36.000000)">
                <g id="Group-6">
                    <polygon id="Fill-1" points="19 34 34 34 34 19 19 19"></polygon>
                    <polygon id="Fill-2" points="19 15 34 15 34 0 19 0"></polygon>
                    <polygon id="Fill-3" points="39 15 54 15 54 0 39 0"></polygon>
                    <polygon id="Fill-4" points="0 34 15 34 15 19 0 19"></polygon>
                    <polygon id="Fill-5" points="0 54 15 54 15 39 0 39"></polygon>
                </g>
                <path d="M84,20.45 C83.1,20.45 82.4,20.95 82.4,22.025 L82.4,23.15 L85.575,23.15 L85.575,25.825 L82.4,25.825 L82.4,36 L78.575,36 L78.575,25.825 L76.775,25.825 L76.775,23.15 L78.575,23.15 L78.575,21.875 C78.575,18.875 80.825,17.275 83.525,17.275 C84.775,17.275 86.1,17.6 87.05,18.225 L85.675,21.025 C85.175,20.65 84.55,20.45 84,20.45 Z M93.225,22.425 C97.525,22.425 100.425,25.15 100.425,29.275 C100.425,33.375 97.525,36.15 93.225,36.15 C88.9,36.15 86,33.375 86,29.275 C86,25.15 88.9,22.425 93.225,22.425 Z M93.225,25.625 C91.225,25.625 89.85,27.125 89.85,29.325 C89.85,31.525 91.225,33.025 93.225,33.025 C95.2,33.025 96.575,31.525 96.575,29.325 C96.575,27.125 95.2,25.625 93.225,25.625 Z M106.825,24.975 C107.75,23.325 109.275,22.425 111.275,22.4 L111.275,26.025 C108.525,25.775 106.825,27.25 106.825,29.525 L106.825,36 L102.975,36 L102.975,22.55 L106.825,22.55 L106.825,24.975 Z M119.15,22.425 C123.875,22.425 126.075,25.55 125.75,30.45 L116.1,30.45 C116.55,32.15 117.85,33.15 119.575,33.15 C120.85,33.15 122.05,32.65 122.975,31.725 L125,33.775 C123.65,35.275 121.675,36.15 119.25,36.15 C114.95,36.15 112.225,33.4 112.225,29.325 C112.225,25.175 115.05,22.425 119.15,22.425 Z M116.025,28.175 L122.15,28.175 C122.1,26.4 120.95,25.25 119.175,25.25 C117.475,25.25 116.325,26.4 116.025,28.175 Z M135.825,32.425 L136.625,35.25 C135.625,35.825 134.375,36.175 133.125,36.175 C130.725,36.175 128.9,34.8 128.9,32.025 L128.9,25.8 L127.025,25.8 L127.025,23.15 L128.9,23.15 L128.9,19.45 L132.725,19.45 L132.725,23.15 L136.375,23.15 L136.375,25.825 L132.725,25.825 L132.725,31.375 C132.725,32.5 133.2,32.95 134.025,32.925 C134.525,32.925 135.125,32.75 135.825,32.425 Z M147.575,22.4 C150.6,22.4 152.525,24.4 152.525,27.55 L152.525,36 L148.675,36 L148.675,28.675 C148.675,26.975 147.675,25.925 146.025,25.925 C144.1,25.95 142.925,27.4 142.925,29.375 L142.925,36 L139.075,36 L139.075,17.45 L142.925,17.45 L142.925,24.925 C143.875,23.25 145.475,22.425 147.575,22.4 Z M161.9,22.425 C166.2,22.425 169.1,25.15 169.1,29.275 C169.1,33.375 166.2,36.15 161.9,36.15 C157.575,36.15 154.675,33.375 154.675,29.275 C154.675,25.15 157.575,22.425 161.9,22.425 Z M161.9,25.625 C159.9,25.625 158.525,27.125 158.525,29.325 C158.525,31.525 159.9,33.025 161.9,33.025 C163.875,33.025 165.25,31.525 165.25,29.325 C165.25,27.125 163.875,25.625 161.9,25.625 Z M180.6,22.55 L184.425,22.55 L184.425,36 L180.6,36 L180.6,33.625 C179.675,35.325 178.125,36.15 176.1,36.15 C173.125,36.15 171.25,34.175 171.25,31 L171.25,22.55 L175.1,22.55 L175.1,29.9 C175.1,31.6 176.075,32.625 177.625,32.625 C179.475,32.6 180.6,31.15 180.6,29.2 L180.6,22.55 Z M196.925,22.55 L200.75,22.55 L200.75,34.75 C200.75,38.575 197.875,41 193.575,41 C191.3,41 189.275,40.275 187.725,39.225 L189.15,36.525 C190.375,37.4 191.8,37.875 193.325,37.875 C195.525,37.875 196.925,36.7 196.925,34.875 L196.925,33.35 C196.025,34.6 194.65,35.3 192.875,35.3 C189.4,35.3 187,32.7 187,28.8 C187,25 189.35,22.425 192.775,22.425 C194.6,22.4 196,23.125 196.925,24.375 L196.925,22.55 Z M193.775,32.375 C195.65,32.375 196.925,30.95 196.925,28.9 C196.925,26.825 195.65,25.4 193.775,25.4 C191.9,25.4 190.625,26.85 190.6,28.9 C190.625,30.95 191.875,32.375 193.775,32.375 Z M212.9,22.4 C215.925,22.4 217.85,24.4 217.85,27.55 L217.85,36 L214,36 L214,28.675 C214,26.975 213,25.925 211.35,25.925 C209.425,25.95 208.25,27.4 208.25,29.375 L208.25,36 L204.4,36 L204.4,17.45 L208.25,17.45 L208.25,24.925 C209.2,23.25 210.8,22.425 212.9,22.4 Z M228.675,32.425 L229.475,35.25 C228.475,35.825 227.225,36.175 225.975,36.175 C223.575,36.175 221.75,34.8 221.75,32.025 L221.75,25.8 L219.875,25.8 L219.875,23.15 L221.75,23.15 L221.75,19.45 L225.575,19.45 L225.575,23.15 L229.225,23.15 L229.225,25.825 L225.575,25.825 L225.575,31.375 C225.575,32.5 226.05,32.95 226.875,32.925 C227.375,32.925 227.975,32.75 228.675,32.425 Z" id="forethought"></path>
            </g>
        </g>
    </g>
</svg>